PathFileType	4	(X/Y/Z)	two_link_pedal_002.trc
DataRate	CameraRate	NumFrames	NumMarkers	Units	OrigDataRate	OrigDataStartFrame	OrigNumFrames
100	100	6	2	m	100	1	7	
Frame#	Time	Link2_Marker_1			Link1_Marker_1		
		X1	Y1	Z1	X2	Y2	Z2

6	0.050000000	0.250916877	0.214590562	0.000000000	0.050000000	0.250000000	0.000000000
7	0.060000000	0.263497433	0.231672450	0.000000000	0.050000000	0.250000000	0.000000000
8	0.070000000	0.276077990	0.248754337	0.000000000	0.050000000	0.250000000	0.000000000
9	0.080000000	0.288658547	0.265836225	0.000000000	0.050000000	0.250000000	0.000000000
10	0.090000000	0.301239103	0.282918112	0.000000000	0.050000000	0.250000000	0.000000000
11	0.100000000	0.313819660	0.300000000	0.000000000	0.050000000	0.250000000	0.000000000
